# xmcd
# 
# Track frame offsets:
#     150
#     19804
#     36328
#     68929
#     84223
#     107812
#     122553
#     145480
#     171377
#     184240
#     196808
#     214071
#     239232
# 
# Disc length: 3422
# 
# Revision: 1
# Processed by: cddbd v1.5.2PL0 Copyright (c) Steve Scherf et al.
# Submitted via: fre:ac v1.0.17
# 
DISCID=c20d5c0d
DTITLE=BlueSugar - Want some?
DYEAR=2018
DGENRE=Blues
TTITLE0=Blues Party
TTITLE1=Born In Chicago
TTITLE2=The Place
TTITLE3=Every Monday Morning
TTITLE4=Fancy Man Blues
TTITLE5=Maggie's Farm
TTITLE6=Friday Night Boogie
TTITLE7=Down By The Jetty Blues
TTITLE8=Annie Maybe
TTITLE9=Tomorrow By This Time
TTITLE10=Obstacles In My Way
TTITLE11=Rolling Stones Blues
TTITLE12=Walking By Myself
EXTD=
EXTT0=
EXTT1=
EXTT2=
EXTT3=
EXTT4=
EXTT5=
EXTT6=
EXTT7=
EXTT8=
EXTT9=
EXTT10=
EXTT11=
EXTT12=
PLAYORDER=
